<svg width="184" height="49" viewBox="0 0 184 49" fill="none" xmlns="http://www.w3.org/2000/svg">
<path d="M62.296 35.168C61.176 35.168 60.168 34.976 59.272 34.592C58.376 34.192 57.672 33.632 57.16 32.912C56.648 32.192 56.392 31.352 56.392 30.392H59.32C59.384 31.112 59.664 31.704 60.16 32.168C60.672 32.632 61.384 32.864 62.296 32.864C63.24 32.864 63.976 32.64 64.504 32.192C65.032 31.728 65.296 31.136 65.296 30.416C65.296 29.856 65.128 29.4 64.792 29.048C64.472 28.696 64.064 28.424 63.568 28.232C63.088 28.04 62.416 27.832 61.552 27.608C60.464 27.32 59.576 27.032 58.888 26.744C58.216 26.44 57.64 25.976 57.16 25.352C56.68 24.728 56.44 23.896 56.44 22.856C56.44 21.896 56.68 21.056 57.16 20.336C57.64 19.616 58.312 19.064 59.176 18.68C60.04 18.296 61.04 18.104 62.176 18.104C63.792 18.104 65.112 18.512 66.136 19.328C67.176 20.128 67.752 21.232 67.864 22.64H64.84C64.792 22.032 64.504 21.512 63.976 21.08C63.448 20.648 62.752 20.432 61.888 20.432C61.104 20.432 60.464 20.632 59.968 21.032C59.472 21.432 59.224 22.008 59.224 22.76C59.224 23.272 59.376 23.696 59.68 24.032C60 24.352 60.4 24.608 60.88 24.8C61.36 24.992 62.016 25.2 62.848 25.424C63.952 25.728 64.848 26.032 65.536 26.336C66.24 26.64 66.832 27.112 67.312 27.752C67.808 28.376 68.056 29.216 68.056 30.272C68.056 31.12 67.824 31.92 67.36 32.672C66.912 33.424 66.248 34.032 65.368 34.496C64.504 34.944 63.48 35.168 62.296 35.168ZM83.4044 28.064C83.4044 28.56 83.3724 29.008 83.3084 29.408H73.2044C73.2844 30.464 73.6764 31.312 74.3804 31.952C75.0844 32.592 75.9484 32.912 76.9724 32.912C78.4444 32.912 79.4844 32.296 80.0924 31.064H83.0444C82.6444 32.28 81.9164 33.28 80.8604 34.064C79.8204 34.832 78.5244 35.216 76.9724 35.216C75.7084 35.216 74.5724 34.936 73.5644 34.376C72.5724 33.8 71.7884 33 71.2124 31.976C70.6524 30.936 70.3724 29.736 70.3724 28.376C70.3724 27.016 70.6444 25.824 71.1884 24.8C71.7484 23.76 72.5244 22.96 73.5164 22.4C74.5244 21.84 75.6764 21.56 76.9724 21.56C78.2204 21.56 79.3324 21.832 80.3084 22.376C81.2844 22.92 82.0444 23.688 82.5884 24.68C83.1324 25.656 83.4044 26.784 83.4044 28.064ZM80.5484 27.2C80.5324 26.192 80.1724 25.384 79.4684 24.776C78.7644 24.168 77.8924 23.864 76.8524 23.864C75.9084 23.864 75.1004 24.168 74.4284 24.776C73.7564 25.368 73.3564 26.176 73.2284 27.2H80.5484ZM91.4249 21.56C92.4489 21.56 93.3529 21.768 94.1369 22.184C94.9369 22.584 95.5609 23.088 96.0089 23.696V21.776H98.7689V35.216C98.7689 36.432 98.5129 37.512 98.0009 38.456C97.4889 39.416 96.7449 40.168 95.7689 40.712C94.8089 41.256 93.6569 41.528 92.3129 41.528C90.5209 41.528 89.0329 41.104 87.8489 40.256C86.6649 39.424 85.9929 38.288 85.8329 36.848H88.5449C88.7529 37.536 89.1929 38.088 89.8649 38.504C90.5529 38.936 91.3689 39.152 92.3129 39.152C93.4169 39.152 94.3049 38.816 94.9769 38.144C95.6649 37.472 96.0089 36.496 96.0089 35.216V33.008C95.5449 33.632 94.9129 34.16 94.1129 34.592C93.3289 35.008 92.4329 35.216 91.4249 35.216C90.2729 35.216 89.2169 34.928 88.2569 34.352C87.3129 33.76 86.5609 32.944 86.0009 31.904C85.4569 30.848 85.1849 29.656 85.1849 28.328C85.1849 27 85.4569 25.824 86.0009 24.8C86.5609 23.776 87.3129 22.984 88.2569 22.424C89.2169 21.848 90.2729 21.56 91.4249 21.56ZM96.0089 28.376C96.0089 27.464 95.8169 26.672 95.4329 26C95.0649 25.328 94.5769 24.816 93.9689 24.464C93.3609 24.112 92.7049 23.936 92.0009 23.936C91.2969 23.936 90.6409 24.112 90.0329 24.464C89.4249 24.8 88.9289 25.304 88.5449 25.976C88.1769 26.632 87.9929 27.416 87.9929 28.328C87.9929 29.24 88.1769 30.04 88.5449 30.728C88.9289 31.416 89.4249 31.944 90.0329 32.312C90.6569 32.664 91.3129 32.84 92.0009 32.84C92.7049 32.84 93.3609 32.664 93.9689 32.312C94.5769 31.96 95.0649 31.448 95.4329 30.776C95.8169 30.088 96.0089 29.288 96.0089 28.376ZM118.371 21.56C119.411 21.56 120.339 21.776 121.155 22.208C121.987 22.64 122.635 23.28 123.099 24.128C123.579 24.976 123.819 26 123.819 27.2V35H121.107V27.608C121.107 26.424 120.811 25.52 120.219 24.896C119.627 24.256 118.819 23.936 117.795 23.936C116.771 23.936 115.955 24.256 115.347 24.896C114.755 25.52 114.459 26.424 114.459 27.608V35H111.747V27.608C111.747 26.424 111.451 25.52 110.859 24.896C110.267 24.256 109.459 23.936 108.435 23.936C107.411 23.936 106.595 24.256 105.987 24.896C105.395 25.52 105.099 26.424 105.099 27.608V35H102.363V21.776H105.099V23.288C105.547 22.744 106.115 22.32 106.803 22.016C107.491 21.712 108.227 21.56 109.011 21.56C110.067 21.56 111.011 21.784 111.843 22.232C112.675 22.68 113.315 23.328 113.763 24.176C114.163 23.376 114.787 22.744 115.635 22.28C116.483 21.8 117.395 21.56 118.371 21.56ZM139.42 28.064C139.42 28.56 139.388 29.008 139.324 29.408H129.22C129.3 30.464 129.692 31.312 130.396 31.952C131.1 32.592 131.964 32.912 132.988 32.912C134.46 32.912 135.5 32.296 136.108 31.064H139.06C138.66 32.28 137.932 33.28 136.876 34.064C135.836 34.832 134.54 35.216 132.988 35.216C131.724 35.216 130.588 34.936 129.58 34.376C128.588 33.8 127.804 33 127.228 31.976C126.668 30.936 126.388 29.736 126.388 28.376C126.388 27.016 126.66 25.824 127.204 24.8C127.764 23.76 128.54 22.96 129.532 22.4C130.54 21.84 131.692 21.56 132.988 21.56C134.236 21.56 135.348 21.832 136.324 22.376C137.3 22.92 138.06 23.688 138.604 24.68C139.148 25.656 139.42 26.784 139.42 28.064ZM136.564 27.2C136.548 26.192 136.188 25.384 135.484 24.776C134.78 24.168 133.908 23.864 132.868 23.864C131.924 23.864 131.116 24.168 130.444 24.776C129.772 25.368 129.372 26.176 129.244 27.2H136.564ZM148.785 21.56C149.825 21.56 150.753 21.776 151.569 22.208C152.401 22.64 153.049 23.28 153.513 24.128C153.977 24.976 154.209 26 154.209 27.2V35H151.497V27.608C151.497 26.424 151.201 25.52 150.609 24.896C150.017 24.256 149.209 23.936 148.185 23.936C147.161 23.936 146.345 24.256 145.737 24.896C145.145 25.52 144.849 26.424 144.849 27.608V35H142.113V21.776H144.849V23.288C145.297 22.744 145.865 22.32 146.553 22.016C147.257 21.712 148.001 21.56 148.785 21.56ZM160.89 24.008V31.328C160.89 31.824 161.002 32.184 161.226 32.408C161.466 32.616 161.866 32.72 162.426 32.72H164.106V35H161.946C160.714 35 159.77 34.712 159.114 34.136C158.458 33.56 158.13 32.624 158.13 31.328V24.008H156.57V21.776H158.13V18.488H160.89V21.776H164.106V24.008H160.89ZM165.716 28.328C165.716 27 165.988 25.824 166.532 24.8C167.092 23.776 167.844 22.984 168.788 22.424C169.748 21.848 170.804 21.56 171.956 21.56C172.996 21.56 173.9 21.768 174.668 22.184C175.452 22.584 176.076 23.088 176.54 23.696V21.776H179.3V35H176.54V33.032C176.076 33.656 175.444 34.176 174.644 34.592C173.844 35.008 172.932 35.216 171.908 35.216C170.772 35.216 169.732 34.928 168.788 34.352C167.844 33.76 167.092 32.944 166.532 31.904C165.988 30.848 165.716 29.656 165.716 28.328ZM176.54 28.376C176.54 27.464 176.348 26.672 175.964 26C175.596 25.328 175.108 24.816 174.5 24.464C173.892 24.112 173.236 23.936 172.532 23.936C171.828 23.936 171.172 24.112 170.564 24.464C169.956 24.8 169.46 25.304 169.076 25.976C168.708 26.632 168.524 27.416 168.524 28.328C168.524 29.24 168.708 30.04 169.076 30.728C169.46 31.416 169.956 31.944 170.564 32.312C171.188 32.664 171.844 32.84 172.532 32.84C173.236 32.84 173.892 32.664 174.5 32.312C175.108 31.96 175.596 31.448 175.964 30.776C176.348 30.088 176.54 29.288 176.54 28.376Z" fill="#00021A"/>
<path d="M42.9953 15.8641C42.9956 16.5292 42.9984 17.1944 42.9949 17.8596C42.9888 19.0377 42.7502 19.1859 41.7656 18.6121C35.9209 15.2057 30.0776 11.797 24.2357 8.38593C21.3538 6.69859 21.3666 6.69229 18.5161 8.3669C14.9571 10.4577 11.3937 12.5407 7.82581 14.6158C5.43208 16.0143 5.42702 18.5233 7.81044 19.9241C14.0377 23.5843 20.2639 27.2466 26.4888 30.9108C27.5561 31.5387 27.5552 31.8452 26.4872 32.4717C25.3499 33.1389 24.2103 33.8022 23.0751 34.473C22.6759 34.7337 22.2113 34.8733 21.7361 34.8756C21.2609 34.8779 20.795 34.7426 20.3934 34.4858C14.0133 30.7468 7.63268 27.0087 1.25151 23.2716C0.858241 23.0571 0.532553 22.7351 0.311626 22.3423C0.0906986 21.9496 -0.0165668 21.502 0.00207509 21.0505C0.00647398 18.4477 0.00674755 15.8449 0.0028958 13.242C0.00170593 12.218 0.460814 11.4781 1.3323 10.9818C7.53368 7.45031 13.7344 3.91757 19.9344 0.38358C20.8421 -0.134565 21.7089 -0.126263 22.6122 0.399321C28.9299 4.07505 35.252 7.74296 41.5785 11.403C42.5445 11.9612 43.0336 12.7405 42.9989 13.8687C42.9784 14.5332 42.9951 15.1989 42.9953 15.8641Z" fill="#00021A"/>
<path d="M42.9951 31.8709C42.9951 33.1434 42.9803 34.4161 42.9996 35.6883C43.0157 36.7491 42.5664 37.5162 41.6643 38.0296C35.4619 41.5594 29.2599 45.09 23.0584 48.6214C22.1503 49.1393 21.2811 49.1207 20.3813 48.5975C14.0384 44.9091 7.69222 41.2265 1.34272 37.5498C0.439871 37.0267 -0.00815693 36.2649 0.00124352 35.2091C0.0133431 33.85 -0.00158262 32.4906 0.00346358 31.1314C0.0078041 29.9626 0.261204 29.8115 1.25148 30.3894C6.67318 33.553 12.0941 36.7181 17.5141 39.8846C18.4301 40.4193 19.36 40.9304 20.264 41.4849C21.1874 42.0513 22.0769 42.0526 23.011 41.5032C27.1371 39.0766 31.2779 36.6754 35.401 34.2436C37.4975 33.0071 37.4996 30.4573 35.4046 29.2183C29.1131 25.4974 22.8162 21.7856 16.514 18.0831C15.4333 17.4459 15.4405 17.1573 16.5241 16.5259C17.6633 15.8619 18.8048 15.2017 19.9396 14.53C20.8035 14.0186 21.6737 13.9788 22.5427 14.4871C28.9509 18.2353 35.3573 21.9867 41.7617 25.7415C42.6011 26.2335 43.0051 26.9841 43.0011 27.9667C42.9957 29.2681 42.9997 30.5695 42.9997 31.8709L42.9951 31.8709Z" fill="#00021A"/>
</svg>
