<svg xmlns="http://www.w3.org/2000/svg" viewBox="0 0 250.44006 282.24598"><defs><style>.cls-1{fill:#fff;}</style></defs><title>Asset 1</title><g id="Layer_2" data-name="Layer 2"><g id="Layer_1-2" data-name="Layer 1"><path class="cls-1" d="M250.40751,91.379c.00125,3.83147.01782,7.663-.00242,11.49437-.03585,6.78591-1.42532,7.63982-7.16,4.33432Q192.1846,77.77629,141.14777,48.304c-16.78485-9.71928-16.71014-9.75558-33.31207-.10963Q76.74387,66.2592,45.57358,84.18894c-13.94154,8.05511-13.971,22.50726-.08949,30.57655q54.40347,31.6247,108.78651,63.28458c6.216,3.61685,6.21039,5.38223-.0094,8.99075-6.62411,3.84305-13.261,7.66421-19.873,11.52811a14.50326,14.50326,0,0,1-15.61871.07357Q63.03133,166.33675,7.28363,134.04735A13.879,13.879,0,0,1,.0067,121.25365q.03843-22.489.00478-44.978c-.00693-5.89855,2.667-10.1605,7.74269-13.01908Q61.93123,32.74379,116.0961,2.20947c5.2866-2.98458,10.335-2.93676,15.59629.09067q55.19283,31.759,110.46332,63.38271c5.62619,3.21531,8.47476,7.70387,8.27233,14.20244C250.30878,83.713,250.40625,87.54755,250.40751,91.379Z"/><path class="cls-1" d="M250.40488,183.58013c0,7.32971-.08606,14.66073.02658,21.98873.09394,6.11066-2.52344,10.529-7.77731,13.48609q-54.18585,30.49818-108.36392,61.01013c-5.2891,2.983-10.35129,2.87616-15.59189-.1377Q63.28486,248.05925,7.81385,216.29128c-5.25835-3.01276-7.86775-7.40085-7.813-13.48239.07047-7.82874-.01646-15.65879.01293-23.48807.02528-6.73267,1.50113-7.60279,7.26871-4.27436q47.36544,27.3345,94.71667,54.69361c5.33475,3.07995,10.751,6.02383,16.016,9.218,5.37793,3.2627,10.55832,3.27,15.9986.10563,24.03128-13.97782,48.148-27.80881,72.16183-41.81641,12.21033-7.12244,12.22263-21.80933.0213-28.94611Q151.23206,136.15135,96.17408,104.161c-6.294-3.67052-6.25226-5.3326.0587-8.96991,6.63545-3.82434,13.28352-7.62723,19.89271-11.49649,5.03144-2.94553,10.09967-3.175,15.16089-.2472q55.98427,32.3849,111.93546,64.82685c4.88833,2.834,7.2416,7.15759,7.218,12.81741-.03121,7.496-.00769,14.99228-.00769,22.48844Z"/></g></g></svg>