<svg width="178" height="49" viewBox="0 0 178 49" fill="none" xmlns="http://www.w3.org/2000/svg">
<path d="M60.296 38.168C59.176 38.168 58.168 37.976 57.272 37.592C56.376 37.192 55.672 36.632 55.16 35.912C54.648 35.192 54.392 34.352 54.392 33.392H57.32C57.384 34.112 57.664 34.704 58.16 35.168C58.672 35.632 59.384 35.864 60.296 35.864C61.24 35.864 61.976 35.64 62.504 35.192C63.032 34.728 63.296 34.136 63.296 33.416C63.296 32.856 63.128 32.4 62.792 32.048C62.472 31.696 62.064 31.424 61.568 31.232C61.088 31.04 60.416 30.832 59.552 30.608C58.464 30.32 57.576 30.032 56.888 29.744C56.216 29.44 55.64 28.976 55.16 28.352C54.68 27.728 54.44 26.896 54.44 25.856C54.44 24.896 54.68 24.056 55.16 23.336C55.64 22.616 56.312 22.064 57.176 21.68C58.04 21.296 59.04 21.104 60.176 21.104C61.792 21.104 63.112 21.512 64.136 22.328C65.176 23.128 65.752 24.232 65.864 25.64H62.84C62.792 25.032 62.504 24.512 61.976 24.08C61.448 23.648 60.752 23.432 59.888 23.432C59.104 23.432 58.464 23.632 57.968 24.032C57.472 24.432 57.224 25.008 57.224 25.76C57.224 26.272 57.376 26.696 57.68 27.032C58 27.352 58.4 27.608 58.88 27.8C59.36 27.992 60.016 28.2 60.848 28.424C61.952 28.728 62.848 29.032 63.536 29.336C64.24 29.64 64.832 30.112 65.312 30.752C65.808 31.376 66.056 32.216 66.056 33.272C66.056 34.12 65.824 34.92 65.36 35.672C64.912 36.424 64.248 37.032 63.368 37.496C62.504 37.944 61.48 38.168 60.296 38.168Z" fill="#E5E7F2"/>
<path d="M81.4044 31.064C81.4044 31.56 81.3724 32.008 81.3084 32.408H71.2044C71.2844 33.464 71.6764 34.312 72.3804 34.952C73.0844 35.592 73.9484 35.912 74.9724 35.912C76.4444 35.912 77.4844 35.296 78.0924 34.064H81.0444C80.6444 35.28 79.9164 36.28 78.8604 37.064C77.8204 37.832 76.5244 38.216 74.9724 38.216C73.7084 38.216 72.5724 37.936 71.5644 37.376C70.5724 36.8 69.7884 36 69.2124 34.976C68.6524 33.936 68.3724 32.736 68.3724 31.376C68.3724 30.016 68.6444 28.824 69.1884 27.8C69.7484 26.76 70.5244 25.96 71.5164 25.4C72.5244 24.84 73.6764 24.56 74.9724 24.56C76.2204 24.56 77.3324 24.832 78.3084 25.376C79.2844 25.92 80.0444 26.688 80.5884 27.68C81.1324 28.656 81.4044 29.784 81.4044 31.064ZM78.5484 30.2C78.5324 29.192 78.1724 28.384 77.4684 27.776C76.7644 27.168 75.8924 26.864 74.8524 26.864C73.9084 26.864 73.1004 27.168 72.4284 27.776C71.7564 28.368 71.3564 29.176 71.2284 30.2H78.5484Z" fill="#E5E7F2"/>
<path d="M89.4249 24.56C90.4489 24.56 91.3529 24.768 92.1369 25.184C92.9369 25.584 93.5609 26.088 94.0089 26.696V24.776H96.7689V38.216C96.7689 39.432 96.5129 40.512 96.0009 41.456C95.4889 42.416 94.7449 43.168 93.7689 43.712C92.8089 44.256 91.6569 44.528 90.3129 44.528C88.5209 44.528 87.0329 44.104 85.8489 43.256C84.6649 42.424 83.9929 41.288 83.8329 39.848H86.5449C86.7529 40.536 87.1929 41.088 87.8649 41.504C88.5529 41.936 89.3689 42.152 90.3129 42.152C91.4169 42.152 92.3049 41.816 92.9769 41.144C93.6649 40.472 94.0089 39.496 94.0089 38.216V36.008C93.5449 36.632 92.9129 37.16 92.1129 37.592C91.3289 38.008 90.4329 38.216 89.4249 38.216C88.2729 38.216 87.2169 37.928 86.2569 37.352C85.3129 36.76 84.5609 35.944 84.0009 34.904C83.4569 33.848 83.1849 32.656 83.1849 31.328C83.1849 30 83.4569 28.824 84.0009 27.8C84.5609 26.776 85.3129 25.984 86.2569 25.424C87.2169 24.848 88.2729 24.56 89.4249 24.56ZM94.0089 31.376C94.0089 30.464 93.8169 29.672 93.4329 29C93.0649 28.328 92.5769 27.816 91.9689 27.464C91.3609 27.112 90.7049 26.936 90.0009 26.936C89.2969 26.936 88.6409 27.112 88.0329 27.464C87.4249 27.8 86.9289 28.304 86.5449 28.976C86.1769 29.632 85.9929 30.416 85.9929 31.328C85.9929 32.24 86.1769 33.04 86.5449 33.728C86.9289 34.416 87.4249 34.944 88.0329 35.312C88.6569 35.664 89.3129 35.84 90.0009 35.84C90.7049 35.84 91.3609 35.664 91.9689 35.312C92.5769 34.96 93.0649 34.448 93.4329 33.776C93.8169 33.088 94.0089 32.288 94.0089 31.376Z" fill="#E5E7F2"/>
<path d="M116.37 24.56C117.41 24.56 118.339 24.776 119.155 25.208C119.987 25.64 120.635 26.28 121.099 27.128C121.579 27.976 121.819 29 121.819 30.2V38H119.106V30.608C119.106 29.424 118.81 28.52 118.218 27.896C117.626 27.256 116.819 26.936 115.795 26.936C114.771 26.936 113.955 27.256 113.347 27.896C112.755 28.52 112.459 29.424 112.459 30.608V38H109.746V30.608C109.746 29.424 109.45 28.52 108.858 27.896C108.266 27.256 107.459 26.936 106.435 26.936C105.411 26.936 104.595 27.256 103.987 27.896C103.395 28.52 103.099 29.424 103.099 30.608V38H100.363V24.776H103.099V26.288C103.547 25.744 104.114 25.32 104.802 25.016C105.49 24.712 106.226 24.56 107.01 24.56C108.066 24.56 109.01 24.784 109.842 25.232C110.674 25.68 111.314 26.328 111.762 27.176C112.162 26.376 112.786 25.744 113.634 25.28C114.482 24.8 115.394 24.56 116.37 24.56Z" fill="#E5E7F2"/>
<path d="M137.42 31.064C137.42 31.56 137.388 32.008 137.324 32.408H127.22C127.3 33.464 127.692 34.312 128.396 34.952C129.1 35.592 129.964 35.912 130.988 35.912C132.46 35.912 133.5 35.296 134.108 34.064H137.06C136.66 35.28 135.932 36.28 134.876 37.064C133.836 37.832 132.54 38.216 130.988 38.216C129.724 38.216 128.588 37.936 127.58 37.376C126.588 36.8 125.804 36 125.228 34.976C124.668 33.936 124.388 32.736 124.388 31.376C124.388 30.016 124.66 28.824 125.204 27.8C125.764 26.76 126.54 25.96 127.532 25.4C128.54 24.84 129.692 24.56 130.988 24.56C132.236 24.56 133.348 24.832 134.324 25.376C135.3 25.92 136.06 26.688 136.604 27.68C137.148 28.656 137.42 29.784 137.42 31.064ZM134.564 30.2C134.548 29.192 134.188 28.384 133.484 27.776C132.78 27.168 131.908 26.864 130.868 26.864C129.924 26.864 129.116 27.168 128.444 27.776C127.772 28.368 127.372 29.176 127.244 30.2H134.564Z" fill="#E5E7F2"/>
<path d="M146.785 24.56C147.825 24.56 148.752 24.776 149.568 25.208C150.4 25.64 151.048 26.28 151.512 27.128C151.976 27.976 152.208 29 152.208 30.2V38H149.497V30.608C149.497 29.424 149.201 28.52 148.609 27.896C148.017 27.256 147.208 26.936 146.184 26.936C145.16 26.936 144.344 27.256 143.736 27.896C143.144 28.52 142.848 29.424 142.848 30.608V38H140.113V24.776H142.848V26.288C143.296 25.744 143.865 25.32 144.553 25.016C145.257 24.712 146.001 24.56 146.785 24.56Z" fill="#E5E7F2"/>
<path d="M158.89 27.008V34.328C158.89 34.824 159.002 35.184 159.226 35.408C159.466 35.616 159.866 35.72 160.426 35.72H162.106V38H159.946C158.714 38 157.77 37.712 157.114 37.136C156.458 36.56 156.13 35.624 156.13 34.328V27.008H154.57V24.776H156.13V21.488H158.89V24.776H162.106V27.008H158.89Z" fill="#E5E7F2"/>
<path d="M163.716 31.328C163.716 30 163.988 28.824 164.532 27.8C165.092 26.776 165.844 25.984 166.788 25.424C167.748 24.848 168.804 24.56 169.956 24.56C170.996 24.56 171.9 24.768 172.668 25.184C173.452 25.584 174.076 26.088 174.54 26.696V24.776H177.3V38H174.54V36.032C174.076 36.656 173.444 37.176 172.644 37.592C171.844 38.008 170.932 38.216 169.908 38.216C168.772 38.216 167.732 37.928 166.788 37.352C165.844 36.76 165.092 35.944 164.532 34.904C163.988 33.848 163.716 32.656 163.716 31.328ZM174.54 31.376C174.54 30.464 174.348 29.672 173.964 29C173.596 28.328 173.108 27.816 172.5 27.464C171.892 27.112 171.236 26.936 170.532 26.936C169.828 26.936 169.172 27.112 168.564 27.464C167.956 27.8 167.46 28.304 167.076 28.976C166.708 29.632 166.524 30.416 166.524 31.328C166.524 32.24 166.708 33.04 167.076 33.728C167.46 34.416 167.956 34.944 168.564 35.312C169.188 35.664 169.844 35.84 170.532 35.84C171.236 35.84 171.892 35.664 172.5 35.312C173.108 34.96 173.596 34.448 173.964 33.776C174.348 33.088 174.54 32.288 174.54 31.376Z" fill="#E5E7F2"/>
<path d="M42.9953 15.8641C42.9955 16.5292 42.9984 17.1944 42.9949 17.8596C42.9888 19.0377 42.7502 19.1859 41.7656 18.6121C35.9209 15.2057 30.0776 11.797 24.2357 8.38593C21.3538 6.69859 21.3666 6.69229 18.5161 8.3669C14.9571 10.4577 11.3937 12.5407 7.82581 14.6158C5.43208 16.0143 5.42702 18.5233 7.81044 19.9241C14.0377 23.5843 20.2639 27.2466 26.4888 30.9108C27.5561 31.5387 27.5552 31.8452 26.4872 32.4717C25.3499 33.1389 24.2103 33.8022 23.0751 34.473C22.6759 34.7337 22.2113 34.8733 21.7361 34.8756C21.2609 34.8779 20.795 34.7426 20.3934 34.4858C14.0133 30.7468 7.63268 27.0087 1.25151 23.2716C0.858241 23.0571 0.532553 22.7351 0.311626 22.3423C0.0906986 21.9496 -0.0165668 21.502 0.00207509 21.0505C0.00647398 18.4477 0.00674755 15.8449 0.0028958 13.242C0.00170594 12.218 0.460814 11.4781 1.3323 10.9818C7.53368 7.45031 13.7344 3.91757 19.9344 0.38358C20.8421 -0.134565 21.7089 -0.126263 22.6122 0.399321C28.9299 4.07505 35.252 7.74296 41.5785 11.403C42.5445 11.9612 43.0336 12.7405 42.9989 13.8687C42.9784 14.5332 42.9951 15.1989 42.9953 15.8641Z" fill="#E5E7F2"/>
<path d="M42.9951 31.8709C42.9951 33.1434 42.9803 34.4161 42.9996 35.6883C43.0157 36.7491 42.5664 37.5162 41.6643 38.0296C35.4619 41.5594 29.2599 45.09 23.0584 48.6214C22.1503 49.1393 21.2811 49.1207 20.3813 48.5975C14.0384 44.9091 7.69222 41.2265 1.34272 37.5498C0.439871 37.0267 -0.00815693 36.2649 0.00124352 35.2091C0.0133431 33.85 -0.00158262 32.4906 0.00346358 31.1314C0.0078041 29.9626 0.261204 29.8115 1.25148 30.3894C6.67318 33.553 12.0941 36.7181 17.5141 39.8846C18.4301 40.4193 19.36 40.9304 20.264 41.4849C21.1874 42.0513 22.0769 42.0526 23.011 41.5032C27.1371 39.0766 31.2779 36.6754 35.401 34.2436C37.4975 33.0071 37.4996 30.4573 35.4046 29.2183C29.1131 25.4974 22.8162 21.7856 16.514 18.0831C15.4333 17.4459 15.4405 17.1573 16.524 16.5259C17.6633 15.8619 18.8048 15.2017 19.9396 14.53C20.8035 14.0186 21.6737 13.9788 22.5427 14.4871C28.9509 18.2353 35.3573 21.9867 41.7617 25.7415C42.6011 26.2335 43.0051 26.9841 43.0011 27.9667C42.9957 29.2681 42.9997 30.5695 42.9997 31.8709L42.9951 31.8709Z" fill="#E5E7F2"/>
</svg>
